<?xml version="1.0" encoding="UTF-8"?>
<svg version="1.1" xmlns="http://www.w3.org/2000/svg" width="128" height="128">
<path d="M0 0 C4.40775649 2.55880995 7.31737826 5.46156674 9.5859375 10.0859375 C10.44916209 13.39496509 11.07816627 16.70525011 11.5859375 20.0859375 C12.2665625 19.7559375 12.9471875 19.4259375 13.6484375 19.0859375 C19.55667629 17.07462217 24.47426378 18.09103847 30.17578125 20.2734375 C31.37138672 20.72460938 32.56699219 21.17578125 33.79882812 21.640625 C35.02794922 22.11757813 36.25707031 22.59453125 37.5234375 23.0859375 C38.79191561 23.56876605 40.06079303 24.0505469 41.33007812 24.53125 C44.4192961 25.70585759 47.50316113 26.89452634 50.5859375 28.0859375 C50.5859375 35.0159375 50.5859375 41.9459375 50.5859375 49.0859375 C49.9259375 49.0859375 49.2659375 49.0859375 48.5859375 49.0859375 C48.5859375 50.7359375 48.5859375 52.3859375 48.5859375 54.0859375 C49.2459375 54.0859375 49.9059375 54.0859375 50.5859375 54.0859375 C50.5859375 57.0559375 50.5859375 60.0259375 50.5859375 63.0859375 C49.9259375 63.0859375 49.2659375 63.0859375 48.5859375 63.0859375 C48.5859375 64.7359375 48.5859375 66.3859375 48.5859375 68.0859375 C49.2459375 68.0859375 49.9059375 68.0859375 50.5859375 68.0859375 C50.5859375 84.2559375 50.5859375 100.4259375 50.5859375 117.0859375 C41.67543361 115.97212451 41.67543361 115.97212451 37.73046875 113.9921875 C28.68795152 109.84244053 21.63615344 106.89244437 11.78979492 109.93164062 C6.73638053 111.81189789 1.8383015 113.90927748 -2.94140625 116.40625 C-9.79886908 118.29123978 -15.78278599 115.64331123 -21.96313477 112.79638672 C-31.4882039 108.52762664 -38.04057531 107.26692322 -47.9765625 110.9609375 C-51.17594645 112.23313813 -54.30256715 113.61306716 -57.4140625 115.0859375 C-61.42761147 116.90360665 -62.71519294 117.0859375 -67.4140625 117.0859375 C-67.4140625 109.4959375 -67.4140625 101.9059375 -67.4140625 94.0859375 C-66.7540625 94.0859375 -66.0940625 94.0859375 -65.4140625 94.0859375 C-65.4140625 92.4359375 -65.4140625 90.7859375 -65.4140625 89.0859375 C-66.0740625 89.0859375 -66.7340625 89.0859375 -67.4140625 89.0859375 C-67.4140625 68.9559375 -67.4140625 48.8259375 -67.4140625 28.0859375 C-37.06151261 16.84425236 -37.06151261 16.84425236 -30.4765625 19.0859375 C-29.7959375 19.4159375 -29.1153125 19.7459375 -28.4140625 20.0859375 C-28.17623047 18.89097656 -28.17623047 18.89097656 -27.93359375 17.671875 C-26.16410384 9.63584899 -24.60759262 5.15437418 -17.8515625 0.2109375 C-12.03026537 -1.69421429 -5.81881465 -2.2032405 0 0 Z " fill="#090A07" transform="translate(72.4140625,5.9140625)"/>
<path d="M0 0 C1.79236067 0.47656412 3.58386897 0.95633498 5.375 1.4375 C6.37273437 1.70433594 7.37046875 1.97117188 8.3984375 2.24609375 C11 3 11 3 13 4 C13 9.61 13 15.22 13 21 C13.66 21 14.32 21 15 21 C15 22.98 15 24.96 15 27 C15.66 27 16.32 27 17 27 C17 29.97 17 32.94 17 36 C16.34 36 15.68 36 15 36 C15.020625 36.804375 15.04125 37.60875 15.0625 38.4375 C15 41 15 41 14 42 C13.87814857 43.34983748 13.82233169 44.70574701 13.79467773 46.06079102 C13.77473251 46.92160782 13.75478729 47.78242462 13.73423767 48.66932678 C13.70916893 50.07244362 13.70916893 50.07244362 13.68359375 51.50390625 C13.66281265 52.45692123 13.64203156 53.40993622 13.62062073 54.39183044 C13.55501823 57.4486441 13.49619082 60.50554656 13.4375 63.5625 C13.39432494 65.62956663 13.35071099 67.69662414 13.30664062 69.76367188 C13.19932599 74.84235595 13.09808909 79.9211297 13 85 C7.25 84.125 7.25 84.125 5 83 C4.71125 81.906875 4.4225 80.81375 4.125 79.6875 C3.31256565 75.96155439 3.31256565 75.96155439 0.8125 73.875 C-1 72 -1 72 -1.0625 69.4375 C0 67 0 67 2.5625 65.625 C3.366875 65.08875 4.17125 64.5525 5 64 C5.67844928 60.65418086 5.67844928 60.65418086 5 57 C3.09559209 54.8495681 1.57188762 53.41341785 -0.6875 51.75 C-1.21794922 51.32976562 -1.74839844 50.90953125 -2.29492188 50.4765625 C-4.66651474 48.62584709 -6.90462016 47.04374915 -9.64428711 45.78710938 C-12 44 -12 44 -12.71044922 40.92480469 C-12.88238578 34.07763164 -12.88238578 34.07763164 -12.87158203 30.91357422 C-12.8749724 28.76747392 -12.95266308 26.63260958 -13.03515625 24.48828125 C-13.20095021 14.53190223 -13.20095021 14.53190223 -10.00488281 10.45507812 C-4.41248112 6 -4.41248112 6 -1 6 C-0.67 4.02 -0.34 2.04 0 0 Z " fill="#BCDEFB" transform="translate(106,33)"/>
<path d="M0 0 C6 5 6 5 6.375 7.8671875 C6.25125 8.85976563 6.1275 9.85234375 6 10.875 C5.72675358 15.48603329 5.90654363 17.74121847 9 21.25 C9.97265264 22.19563451 10.96394661 23.1242882 12 24 C15.71323586 23.49821137 17.66276162 22.97466703 20 20 C20.57323807 17.72838745 20.57323807 17.72838745 20.6875 15.3125 C20.75324219 14.50425781 20.81898437 13.69601563 20.88671875 12.86328125 C20.92410156 12.24839844 20.96148437 11.63351563 21 11 C22.32 11 23.64 11 25 11 C25 29.48 25 47.96 25 67 C16 65 16 65 0 59 C0 39.53 0 20.06 0 0 Z " fill="#BADBF9" transform="translate(37,51)"/>
<path d="M0 0 C-0.05800781 0.61488281 -0.11601562 1.22976562 -0.17578125 1.86328125 C-0.31298352 4.32116196 -0.35697107 6.56214882 0 9 C2.25 10.91666667 2.25 10.91666667 5 12 C6.8125 14.1875 6.8125 14.1875 8 16 C10.64 15.67 13.28 15.34 16 15 C16 35.13 16 55.26 16 76 C5 80 5 80 3 80 C2.71125 79.0925 2.4225 78.185 2.125 77.25 C1.23468224 74.67797092 0.28505587 72.38653234 -1 70 C0.485 69.505 0.485 69.505 2 69 C2.00257812 68.40832031 2.00515625 67.81664063 2.0078125 67.20703125 C2.32695699 60.68584546 2.32695699 60.68584546 4.4375 58.53515625 C4.994375 58.15230469 5.55125 57.76945312 6.125 57.375 C7.07375 56.59125 8.0225 55.8075 9 55 C9.58412698 51.33886707 9.58412698 51.33886707 8 48 C5.70401807 46.91698965 3.36522558 45.92203709 1 45 C-0.38123963 43.03277992 -1.71488126 41.03131672 -3 39 C-4.52681396 38.14390137 -4.52681396 38.14390137 -6.08447266 37.27050781 C-9 35 -9 35 -9.68115234 31.60839844 C-9.6802087 30.27501318 -9.64665898 28.94137727 -9.5859375 27.609375 C-9.57744781 26.90476135 -9.56895813 26.20014771 -9.56021118 25.47418213 C-9.52671308 23.23120919 -9.45146048 20.99187901 -9.375 18.75 C-9.34489485 17.22661457 -9.31751997 15.70317256 -9.29296875 14.1796875 C-9.22694019 10.45194813 -9.12345129 6.72632975 -9 3 C-2.25 0 -2.25 0 0 0 Z " fill="#E0EBF8" transform="translate(18,34)"/>
<path d="M0 0 C3.9323173 2.65202795 6.18648186 5.30944559 7.6875 9.8125 C8.82775622 20.26484868 3.7715831 29.07829821 -2.56640625 37.0703125 C-4.37289185 38.87275675 -5.97654111 39.82086756 -8.3125 40.8125 C-15.25545782 34.01726468 -22.51656699 23.95803136 -23 13.875 C-22.45232433 8.09755863 -19.91863049 4.269223 -15.625 0.375 C-10.195389 -2.18613726 -5.60803771 -2.01042861 0 0 Z " fill="#F55314" transform="translate(71.3125,10.1875)"/>
<path d="M0 0 C0 8.91 0 17.82 0 27 C-7.875 26.375 -7.875 26.375 -10.35107422 26.16162109 C-12.23012537 26.02871145 -14.1162921 26.01194741 -16 26 C-18.280721 27.87424716 -18.280721 27.87424716 -18.375 30.875 C-17.91717023 34.6902481 -16.9494574 35.64043408 -14 38 C-13.01 38.66 -12.02 39.32 -11 40 C-11.43774907 44.64014017 -11.76743163 46.76743163 -15 50 C-15.28600189 53.43202271 -15.09190042 55.72429875 -14 59 C-14.53125 61.19140625 -14.53125 61.19140625 -15.5 63.5625 C-15.7990625 64.34753906 -16.098125 65.13257812 -16.40625 65.94140625 C-18 68 -18 68 -25 70 C-25 52.18 -25 34.36 -25 16 C-23.02 16.99 -23.02 16.99 -21 18 C-17.21736694 17.71630252 -14.60541155 16.79151238 -12 14 C-11.8453125 12.39125 -11.8453125 12.39125 -11.6875 10.75 C-10.84167355 6.13640116 -9.13603752 4.49218454 -5.88671875 1.28515625 C-4 0 -4 0 0 0 Z " fill="#E1ECF9" transform="translate(91,48)"/>
<path d="M0 0 C1.4415018 0.2024751 2.87835746 0.43818335 4.3125 0.6875 C5.11300781 0.81511719 5.91351563 0.94273438 6.73828125 1.07421875 C9.88058703 2.36044754 10.48144032 4.00482981 12 7 C16.39247366 15.32942527 16.39247366 15.32942527 22.4375 22.4375 C25 25 25 25 25.375 27.875 C25.25125 28.57625 25.1275 29.2775 25 30 C22.69 30.66 20.38 31.32 18 32 C17.97421875 32.62648437 17.9484375 33.25296875 17.921875 33.8984375 C17.86515625 34.71570312 17.8084375 35.53296875 17.75 36.375 C17.68039063 37.59316406 17.68039063 37.59316406 17.609375 38.8359375 C17 41 17 41 14.953125 42.2890625 C14.30859375 42.52367187 13.6640625 42.75828125 13 43 C10.81356493 40.97354799 9.34956697 39.60606036 8 37 C8.13671875 34.65625 8.13671875 34.65625 8.625 32.125 C9.17392274 28.85124455 9.32098977 27.5382614 7.59765625 24.6484375 C5.81485817 22.64324538 3.98883393 20.79921118 2 19 C0 17 0 17 -0.1953125 13.0859375 C-0.18200376 11.51550649 -0.15813602 9.94513779 -0.125 8.375 C-0.11597656 7.57320312 -0.10695312 6.77140625 -0.09765625 5.9453125 C-0.07406223 3.96341477 -0.03819065 1.98167019 0 0 Z " fill="#75C800" transform="translate(37,29)"/>
<path d="M0 0 C3.31467895 1.53406629 5.03944771 2.86311633 7 6 C7 6.66 7 7.32 7 8 C9.31 8.66 11.62 9.32 14 10 C14.33 11.65 14.66 13.3 15 15 C14.195625 15.495 13.39125 15.99 12.5625 16.5 C9.81460721 19.18087102 9.66681762 19.55834015 9.375 23.125 C9.25125 24.40375 9.1275 25.6825 9 27 C8.01 27.66 7.02 28.32 6 29 C5.52269038 32.72301503 5.8612739 33.79191085 8 37 C8.125 39.6875 8.125 39.6875 8 42 C2.25 45 2.25 45 0 45 C0 39.39 0 33.78 0 28 C-0.66 28 -1.32 28 -2 28 C-2.04254356 26.00045254 -2.04080783 23.99958364 -2 22 C-1.67 21.67 -1.34 21.34 -1 21 C-0.84313751 19.44051458 -0.74923361 17.87457332 -0.68359375 16.30859375 C-0.62075195 14.89223633 -0.62075195 14.89223633 -0.55664062 13.44726562 C-0.51732422 12.45404297 -0.47800781 11.46082031 -0.4375 10.4375 C-0.37272461 8.94186523 -0.37272461 8.94186523 -0.30664062 7.41601562 C-0.20019702 4.9441585 -0.09818072 2.4721969 0 0 Z " fill="#A1DD39" transform="translate(9,73)"/>
<path d="M0 0 C2.31284456 0.14026283 4.62527591 0.28735558 6.9375 0.4375 C8.86916016 0.55931641 8.86916016 0.55931641 10.83984375 0.68359375 C14 1 14 1 15 2 C15.08790975 4.29151417 15.10694038 6.58572524 15.09765625 8.87890625 C15.0962413 9.5655687 15.09482635 10.25223114 15.09336853 10.95970154 C15.08775479 13.16067801 15.07520007 15.36155409 15.0625 17.5625 C15.05748676 19.05143083 15.05292355 20.54036324 15.04882812 22.02929688 C15.03863021 25.68626805 15.01905779 29.34302117 15 33 C8.565 34.98 8.565 34.98 2 37 C2.26041667 34.55859375 2.52083333 32.1171875 2.78125 29.67578125 C3.05208739 27.00112815 3.05208739 27.00112815 2.90625 24.31640625 C3 22 3 22 5 19.625 C7.25426794 17.06683366 7.25426794 17.06683366 7.6875 13.5 C7.37932589 10.04966002 7.37932589 10.04966002 5.42578125 8.6171875 C3.52599751 7.35216318 3.52599751 7.35216318 1.53125 6.3359375 C0 5 0 5 -0.21875 2.3515625 C-0.1465625 1.57554688 -0.074375 0.79953125 0 0 Z " fill="#9ED938" transform="translate(76,77)"/>
<path d="M0 0 C0 4.95 0 9.9 0 15 C-1.5159375 15.495 -1.5159375 15.495 -3.0625 16 C-8.41489152 18.30631504 -12.60240846 22.71009425 -14.8828125 28.078125 C-15.51712646 30.16108669 -15.51712646 30.16108669 -16 33 C-18.97788882 33.90991047 -20.43497994 34.25960381 -23.3125 32.9375 C-25 31 -25 31 -25.328125 28.12890625 C-24.93519843 24.38207076 -24.13383147 23.53772374 -21.4375 21 C-16.73873387 16.15206669 -14.44325492 11.07588151 -11.8359375 4.94140625 C-10 2 -10 2 -7.0390625 0.58984375 C-4 0 -4 0 0 0 Z " fill="#9ED938" transform="translate(91,29)"/>
<path d="M0 0 C3.80110395 1.90055197 6.50294589 3.91912158 9.75 6.625 C11.22726563 7.85089844 11.22726563 7.85089844 12.734375 9.1015625 C13.85585937 10.04128906 13.85585937 10.04128906 15 11 C14.65625 12.91796875 14.65625 12.91796875 14 15 C13.175 15.433125 12.35 15.86625 11.5 16.3125 C8.66752258 17.85481842 8.66752258 17.85481842 7.875 21.375 C7.62012032 25.15970222 7.62012032 25.15970222 10.4375 27.75 C11.283125 28.4925 12.12875 29.235 13 30 C13 30.99 13 31.98 13 33 C11.20763933 32.52343588 9.41613103 32.04366502 7.625 31.5625 C6.62726563 31.29566406 5.62953125 31.02882813 4.6015625 30.75390625 C2 30 2 30 0 29 C0 19.43 0 9.86 0 0 Z " fill="#72C200" transform="translate(94,81)"/>
<path d="M0 0 C3.46145669 0.86536417 4.94931405 2.62635769 6.9375 5.484375 C7.55054266 9.16263095 7.19872201 10.95005726 5.5625 14.296875 C3.9375 16.484375 3.9375 16.484375 1.9375 17.484375 C-5.30337591 18.06831661 -5.30337591 18.06831661 -8.5 15.609375 C-11.09723593 12.07713413 -11.5805745 9.88800823 -11.0625 5.484375 C-7.96567477 1.03268873 -5.27078558 -0.35937174 0 0 Z " fill="#120B08" transform="translate(66.0625,14.515625)"/>
<path d="M0 0 C0.08074203 2.62561109 0.1403623 5.24875676 0.1875 7.875 C0.22520508 8.99455078 0.22520508 8.99455078 0.26367188 10.13671875 C0.29296875 12.3046875 0.29296875 12.3046875 0 16 C-3 18 -3 18 -5.5625 17.8125 C-8 17 -8 17 -10 14 C-12.05003955 12.80767387 -12.05003955 12.80767387 -14 12 C-14.08723999 6.76560075 -14.08723999 6.76560075 -13 4 C-8.92910835 1.00039563 -5.00443003 0 0 0 Z " fill="#9AD337" transform="translate(34,29)"/>
<path d="M0 0 C2.4375 0.8125 2.4375 0.8125 4.4375 2.8125 C4.75 5.8125 4.75 5.8125 4.4375 8.8125 C1.4375 10.8125 1.4375 10.8125 -1.6875 10.5 C-4.5625 9.8125 -4.5625 9.8125 -5.5625 8.8125 C-6.01941383 3.55799098 -6.01941383 3.55799098 -4.375 0.875 C-2.5625 -0.1875 -2.5625 -0.1875 0 0 Z " fill="#DCE7F4" transform="translate(64.5625,18.1875)"/>
<path d="M0 0 C5.75 0.875 5.75 0.875 8 2 C8.375 4.75 8.375 4.75 8 8 C3.15789474 12 3.15789474 12 0 12 C0 8.04 0 4.08 0 0 Z " fill="#71C100" transform="translate(94,29)"/>
<path d="M0 0 C0 2.97 0 5.94 0 9 C-1.32 8.67 -2.64 8.34 -4 8 C-4 5.69 -4 3.38 -4 1 C-2 0 -2 0 0 0 Z " fill="#0D0F11" transform="translate(123,60)"/>
</svg>
